<?xml version="1.0" encoding="UTF-8" standalone="no"?>
<!-- Created with Inkscape (http://www.inkscape.org/) -->

<svg
   xmlns:dc="http://purl.org/dc/elements/1.1/"
   xmlns:cc="http://creativecommons.org/ns#"
   xmlns:rdf="http://www.w3.org/1999/02/22-rdf-syntax-ns#"
   xmlns:svg="http://www.w3.org/2000/svg"
   xmlns="http://www.w3.org/2000/svg"
   xmlns:xlink="http://www.w3.org/1999/xlink"
   xmlns:sodipodi="http://sodipodi.sourceforge.net/DTD/sodipodi-0.dtd"
   xmlns:inkscape="http://www.inkscape.org/namespaces/inkscape"
   width="100"
   height="25"
   viewBox="0 0 26.458333 6.6145835"
   version="1.1"
   id="svg1473"
   sodipodi:docname="5star.svg"
   inkscape:version="0.92.3 (2405546, 2018-03-11)">
  <defs
     id="defs1467">
    <linearGradient
       inkscape:collect="always"
       xlink:href="#e"
       id="linearGradient1085"
       gradientUnits="userSpaceOnUse"
       gradientTransform="translate(0.58597807,-0.64544555)"
       y1="5.7810001"
       x2="0"
       y2="42.439999" />
    <linearGradient
       id="e"
       x2="0"
       y1="5.7810001"
       y2="42.439999"
       gradientUnits="userSpaceOnUse"
       gradientTransform="translate(0.58597807,-0.64544555)">
      <stop
         stop-color="#eeeeec"
         stop-opacity=".8"
         offset="0"
         id="stop7" />
      <stop
         stop-color="#eeeeec"
         stop-opacity="0"
         offset="1"
         id="stop9" />
    </linearGradient>
    <linearGradient
       inkscape:collect="always"
       xlink:href="#f"
       id="linearGradient1087"
       gradientUnits="userSpaceOnUse"
       gradientTransform="translate(0.58597807,-0.64544555)"
       x1="14.197"
       y1="-30.75"
       x2="33.595001"
       y2="72.080002" />
    <linearGradient
       id="f"
       x1="14.197"
       x2="33.595001"
       y1="-30.75"
       y2="72.080002"
       gradientUnits="userSpaceOnUse"
       gradientTransform="translate(0.58597807,-0.64544555)">
      <stop
         stop-color="#fff"
         offset="0"
         id="stop12" />
      <stop
         stop-color="#fff"
         stop-opacity="0"
         offset="1"
         id="stop14" />
    </linearGradient>
    <linearGradient
       inkscape:collect="always"
       xlink:href="#e"
       id="linearGradient1089"
       gradientUnits="userSpaceOnUse"
       gradientTransform="translate(0.58597807,-0.64544555)"
       y1="5.7810001"
       x2="0"
       y2="42.439999" />
    <linearGradient
       id="linearGradient2039"
       x2="0"
       y1="5.7810001"
       y2="42.439999"
       gradientUnits="userSpaceOnUse"
       gradientTransform="translate(0.58597807,-0.64544555)">
      <stop
         stop-color="#eeeeec"
         stop-opacity=".8"
         offset="0"
         id="stop2035" />
      <stop
         stop-color="#eeeeec"
         stop-opacity="0"
         offset="1"
         id="stop2037" />
    </linearGradient>
    <linearGradient
       inkscape:collect="always"
       xlink:href="#e"
       id="linearGradient1093"
       gradientUnits="userSpaceOnUse"
       gradientTransform="translate(0.58597807,-0.64544555)"
       y1="5.7810001"
       x2="0"
       y2="42.439999" />
    <linearGradient
       id="linearGradient2053"
       x2="0"
       y1="5.7810001"
       y2="42.439999"
       gradientUnits="userSpaceOnUse"
       gradientTransform="translate(0.58597807,-0.64544555)">
      <stop
         stop-color="#eeeeec"
         stop-opacity=".8"
         offset="0"
         id="stop2049" />
      <stop
         stop-color="#eeeeec"
         stop-opacity="0"
         offset="1"
         id="stop2051" />
    </linearGradient>
    <linearGradient
       inkscape:collect="always"
       xlink:href="#e"
       id="linearGradient1097"
       gradientUnits="userSpaceOnUse"
       gradientTransform="translate(0.58597807,-0.64544555)"
       y1="5.7810001"
       x2="0"
       y2="42.439999" />
    <linearGradient
       id="linearGradient2067"
       x2="0"
       y1="5.7810001"
       y2="42.439999"
       gradientUnits="userSpaceOnUse"
       gradientTransform="translate(0.58597807,-0.64544555)">
      <stop
         stop-color="#eeeeec"
         stop-opacity=".8"
         offset="0"
         id="stop2063" />
      <stop
         stop-color="#eeeeec"
         stop-opacity="0"
         offset="1"
         id="stop2065" />
    </linearGradient>
    <linearGradient
       inkscape:collect="always"
       xlink:href="#e"
       id="linearGradient1101"
       gradientUnits="userSpaceOnUse"
       gradientTransform="translate(0.58597807,-0.64544555)"
       y1="5.7810001"
       x2="0"
       y2="42.439999" />
    <linearGradient
       id="linearGradient2081"
       x2="0"
       y1="5.7810001"
       y2="42.439999"
       gradientUnits="userSpaceOnUse"
       gradientTransform="translate(0.58597807,-0.64544555)">
      <stop
         stop-color="#eeeeec"
         stop-opacity=".8"
         offset="0"
         id="stop2077" />
      <stop
         stop-color="#eeeeec"
         stop-opacity="0"
         offset="1"
         id="stop2079" />
    </linearGradient>
    <linearGradient
       inkscape:collect="always"
       xlink:href="#f"
       id="linearGradient2251"
       gradientUnits="userSpaceOnUse"
       gradientTransform="translate(0.58597807,-0.64544555)"
       x1="14.197"
       y1="-30.75"
       x2="33.595001"
       y2="72.080002" />
    <linearGradient
       inkscape:collect="always"
       xlink:href="#f"
       id="linearGradient2253"
       gradientUnits="userSpaceOnUse"
       gradientTransform="translate(0.58597807,-0.64544555)"
       x1="14.197"
       y1="-30.75"
       x2="33.595001"
       y2="72.080002" />
    <linearGradient
       inkscape:collect="always"
       xlink:href="#f"
       id="linearGradient2255"
       gradientUnits="userSpaceOnUse"
       gradientTransform="translate(0.58597807,-0.64544555)"
       x1="14.197"
       y1="-30.75"
       x2="33.595001"
       y2="72.080002" />
    <linearGradient
       inkscape:collect="always"
       xlink:href="#f"
       id="linearGradient2257"
       gradientUnits="userSpaceOnUse"
       gradientTransform="translate(0.58597807,-0.64544555)"
       x1="14.197"
       y1="-30.75"
       x2="33.595001"
       y2="72.080002" />
  </defs>
  <sodipodi:namedview
     id="base"
     pagecolor="#ffffff"
     bordercolor="#666666"
     borderopacity="1.0"
     inkscape:pageopacity="0.0"
     inkscape:pageshadow="2"
     inkscape:zoom="13.163986"
     inkscape:cx="51.477678"
     inkscape:cy="1.6537505"
     inkscape:document-units="mm"
     inkscape:current-layer="layer1"
     showgrid="false"
     units="px"
     inkscape:window-width="1920"
     inkscape:window-height="960"
     inkscape:window-x="0"
     inkscape:window-y="27"
     inkscape:window-maximized="1" />
  <metadata
     id="metadata1470">
    <rdf:RDF>
      <cc:Work
         rdf:about="">
        <dc:format>image/svg+xml</dc:format>
        <dc:type
           rdf:resource="http://purl.org/dc/dcmitype/StillImage" />
        <dc:title></dc:title>
      </cc:Work>
    </rdf:RDF>
  </metadata>
  <g
     inkscape:label="Layer 1"
     inkscape:groupmode="layer"
     id="layer1"
     transform="translate(0,-290.38538)">
    <g
       id="g1083"
       transform="matrix(0.26458333,0,0,0.26458333,0.07019802,291.73548)">
      <g
         id="g1033"
         transform="matrix(0.35082817,0,0,0.35072472,5.4458826,2.1734028)"
         style="stroke-width:2.85081863">
        <g
           id="g1031"
           transform="translate(102.41105,5.5715859)"
           style="stroke-width:2.85081863">
          <path
             style="fill:#9c7f00;stroke-width:2.85081863"
             inkscape:connector-curvature="0"
             id="path1023"
             d="m 24.460978,3.5420545 a 0.96721,0.96721 0 0 0 -0.75,0.59375 l -5.4062,12.5619995 -13.6249999,1.25 a 0.96721,0.96721 0 0 0 -0.53125,1.6875 l 10.2499999,9.0312 -3,13.344 a 0.96721,0.96721 0 0 0 1.4375,1.0625 l 11.75,-7 11.75,6.9688 a 0.96721,0.96721 0 0 0 1.4375,-1.0625 l -3,-13.312 10.25,-9.0312 a 0.96721,0.96721 0 0 0 -0.53125,-1.6875 l -13.625,-1.25 -5.4062,-12.5619995 a 0.96721,0.96721 0 0 0 -1,-0.59375 z" />
          <path
             style="fill:#edd400;stroke-width:2.85081863"
             inkscape:connector-curvature="0"
             id="path1025"
             d="m 12.345978,42.222554 3.1263,-13.899 -10.7069999,-9.3978 14.1849999,-1.3218 5.6292,-13.0869995 5.6405,13.0819995 14.186,1.3095 -10.699,9.407 3.1383,13.896 -12.253,-7.2683 -12.246,7.2789 z" />
          <path
             inkscape:connector-curvature="0"
             style="fill:none;stroke:url(#linearGradient1085);stroke-width:2.85081863"
             id="path1027"
             d="m 24.585978,5.6357545 -5.2188,12.1559995 a 0.4547,0.4547 0 0 1 -0.375,0.25 l -13.1249999,1.2188 9.9061999,8.7188 a 0.4547,0.4547 0 0 1 0.125,0.4375 l -2.9062,12.875 11.375,-6.75 a 0.4547,0.4547 0 0 1 0.4375,0 l 11.375,6.7188 -2.9062,-12.844 a 0.4547,0.4547 0 0 1 0.125,-0.4375 l 9.9062,-8.7188 -13.125,-1.2188 a 0.4547,0.4547 0 0 1 -0.375,-0.25 l -5.2188,-12.1559995 z" />
          <path
             inkscape:connector-curvature="0"
             style="opacity:0.6;fill:url(#linearGradient2251);stroke-width:2.85081863"
             id="path1029"
             d="m 24.585978,4.5107545 -5.625,13.0939995 -14.1879999,1.3125 9.2811999,8.1562 c 8.444,-3.0385 19.488,-5.427 29.656,-7.5625 l 0.6875,-0.59375 -14.188,-1.3125 -5.625,-13.0939995 z" />
        </g>
      </g>
      <g
         style="stroke-width:2.85081863"
         transform="matrix(0.35082817,0,0,0.35072472,-15.248579,2.4387164)"
         id="g1045">
        <g
           style="stroke-width:2.85081863"
           transform="translate(102.41105,5.5715859)"
           id="g1043">
          <path
             d="m 24.460978,3.5420545 a 0.96721,0.96721 0 0 0 -0.75,0.59375 l -5.4062,12.5619995 -13.6249999,1.25 a 0.96721,0.96721 0 0 0 -0.53125,1.6875 l 10.2499999,9.0312 -3,13.344 a 0.96721,0.96721 0 0 0 1.4375,1.0625 l 11.75,-7 11.75,6.9688 a 0.96721,0.96721 0 0 0 1.4375,-1.0625 l -3,-13.312 10.25,-9.0312 a 0.96721,0.96721 0 0 0 -0.53125,-1.6875 l -13.625,-1.25 -5.4062,-12.5619995 a 0.96721,0.96721 0 0 0 -1,-0.59375 z"
             id="path1035"
             inkscape:connector-curvature="0"
             style="fill:#9c7f00;stroke-width:2.85081863" />
          <path
             d="m 12.345978,42.222554 3.1263,-13.899 -10.7069999,-9.3978 14.1849999,-1.3218 5.6292,-13.0869995 5.6405,13.0819995 14.186,1.3095 -10.699,9.407 3.1383,13.896 -12.253,-7.2683 -12.246,7.2789 z"
             id="path1037"
             inkscape:connector-curvature="0"
             style="fill:#edd400;stroke-width:2.85081863" />
          <path
             d="m 24.585978,5.6357545 -5.2188,12.1559995 a 0.4547,0.4547 0 0 1 -0.375,0.25 l -13.1249999,1.2188 9.9061999,8.7188 a 0.4547,0.4547 0 0 1 0.125,0.4375 l -2.9062,12.875 11.375,-6.75 a 0.4547,0.4547 0 0 1 0.4375,0 l 11.375,6.7188 -2.9062,-12.844 a 0.4547,0.4547 0 0 1 0.125,-0.4375 l 9.9062,-8.7188 -13.125,-1.2188 a 0.4547,0.4547 0 0 1 -0.375,-0.25 l -5.2188,-12.1559995 z"
             id="path1039"
             style="fill:none;stroke:url(#linearGradient1089);stroke-width:2.85081863"
             inkscape:connector-curvature="0" />
          <path
             d="m 24.585978,4.5107545 -5.625,13.0939995 -14.1879999,1.3125 9.2811999,8.1562 c 8.444,-3.0385 19.488,-5.427 29.656,-7.5625 l 0.6875,-0.59375 -14.188,-1.3125 -5.625,-13.0939995 z"
             id="path1041"
             style="opacity:0.6;fill:url(#linearGradient2253);stroke-width:2.85081863"
             inkscape:connector-curvature="0" />
        </g>
      </g>
      <g
         id="g1057"
         transform="matrix(0.35082817,0,0,0.35072472,25.609717,2.4387164)"
         style="stroke-width:2.85081863">
        <g
           id="g1055"
           transform="translate(102.41105,5.5715859)"
           style="stroke-width:2.85081863">
          <path
             style="fill:#9c7f00;stroke-width:2.85081863"
             inkscape:connector-curvature="0"
             id="path1047"
             d="m 24.460978,3.5420545 a 0.96721,0.96721 0 0 0 -0.75,0.59375 l -5.4062,12.5619995 -13.6249999,1.25 a 0.96721,0.96721 0 0 0 -0.53125,1.6875 l 10.2499999,9.0312 -3,13.344 a 0.96721,0.96721 0 0 0 1.4375,1.0625 l 11.75,-7 11.75,6.9688 a 0.96721,0.96721 0 0 0 1.4375,-1.0625 l -3,-13.312 10.25,-9.0312 a 0.96721,0.96721 0 0 0 -0.53125,-1.6875 l -13.625,-1.25 -5.4062,-12.5619995 a 0.96721,0.96721 0 0 0 -1,-0.59375 z" />
          <path
             style="fill:#edd400;stroke-width:2.85081863"
             inkscape:connector-curvature="0"
             id="path1049"
             d="m 12.345978,42.222554 3.1263,-13.899 -10.7069999,-9.3978 14.1849999,-1.3218 5.6292,-13.0869995 5.6405,13.0819995 14.186,1.3095 -10.699,9.407 3.1383,13.896 -12.253,-7.2683 -12.246,7.2789 z" />
          <path
             inkscape:connector-curvature="0"
             style="fill:none;stroke:url(#linearGradient1093);stroke-width:2.85081863"
             id="path1051"
             d="m 24.585978,5.6357545 -5.2188,12.1559995 a 0.4547,0.4547 0 0 1 -0.375,0.25 l -13.1249999,1.2188 9.9061999,8.7188 a 0.4547,0.4547 0 0 1 0.125,0.4375 l -2.9062,12.875 11.375,-6.75 a 0.4547,0.4547 0 0 1 0.4375,0 l 11.375,6.7188 -2.9062,-12.844 a 0.4547,0.4547 0 0 1 0.125,-0.4375 l 9.9062,-8.7188 -13.125,-1.2188 a 0.4547,0.4547 0 0 1 -0.375,-0.25 l -5.2188,-12.1559995 z" />
          <path
             inkscape:connector-curvature="0"
             style="opacity:0.6;fill:url(#linearGradient2255);stroke-width:2.85081863"
             id="path1053"
             d="m 24.585978,4.5107545 -5.625,13.0939995 -14.1879999,1.3125 9.2811999,8.1562 c 8.444,-3.0385 19.488,-5.427 29.656,-7.5625 l 0.6875,-0.59375 -14.188,-1.3125 -5.625,-13.0939995 z" />
        </g>
      </g>
      <g
         style="stroke-width:2.85081863"
         transform="matrix(0.35082817,0,0,0.35072472,47.412676,2.4387164)"
         id="g1069">
        <g
           style="stroke-width:2.85081863"
           transform="translate(102.41105,5.5715859)"
           id="g1067">
          <path
             d="m 24.460978,3.5420545 a 0.96721,0.96721 0 0 0 -0.75,0.59375 l -5.4062,12.5619995 -13.6249999,1.25 a 0.96721,0.96721 0 0 0 -0.53125,1.6875 l 10.2499999,9.0312 -3,13.344 a 0.96721,0.96721 0 0 0 1.4375,1.0625 l 11.75,-7 11.75,6.9688 a 0.96721,0.96721 0 0 0 1.4375,-1.0625 l -3,-13.312 10.25,-9.0312 a 0.96721,0.96721 0 0 0 -0.53125,-1.6875 l -13.625,-1.25 -5.4062,-12.5619995 a 0.96721,0.96721 0 0 0 -1,-0.59375 z"
             id="path1059"
             inkscape:connector-curvature="0"
             style="fill:#9c7f00;stroke-width:2.85081863" />
          <path
             d="m 12.345978,42.222554 3.1263,-13.899 -10.7069999,-9.3978 14.1849999,-1.3218 5.6292,-13.0869995 5.6405,13.0819995 14.186,1.3095 -10.699,9.407 3.1383,13.896 -12.253,-7.2683 -12.246,7.2789 z"
             id="path1061"
             inkscape:connector-curvature="0"
             style="fill:#edd400;stroke-width:2.85081863" />
          <path
             d="m 24.585978,5.6357545 -5.2188,12.1559995 a 0.4547,0.4547 0 0 1 -0.375,0.25 l -13.1249999,1.2188 9.9061999,8.7188 a 0.4547,0.4547 0 0 1 0.125,0.4375 l -2.9062,12.875 11.375,-6.75 a 0.4547,0.4547 0 0 1 0.4375,0 l 11.375,6.7188 -2.9062,-12.844 a 0.4547,0.4547 0 0 1 0.125,-0.4375 l 9.9062,-8.7188 -13.125,-1.2188 a 0.4547,0.4547 0 0 1 -0.375,-0.25 l -5.2188,-12.1559995 z"
             id="path1063"
             style="fill:none;stroke:url(#linearGradient1097);stroke-width:2.85081863"
             inkscape:connector-curvature="0" />
          <path
             d="m 24.585978,4.5107545 -5.625,13.0939995 -14.1879999,1.3125 9.2811999,8.1562 c 8.444,-3.0385 19.488,-5.427 29.656,-7.5625 l 0.6875,-0.59375 -14.188,-1.3125 -5.625,-13.0939995 z"
             id="path1065"
             style="opacity:0.6;fill:url(#linearGradient2257);stroke-width:2.85081863"
             inkscape:connector-curvature="0" />
        </g>
      </g>
      <g
         id="g1081"
         transform="matrix(0.35082817,0,0,0.35072472,-36.403193,2.1734028)"
         style="stroke-width:2.85081863">
        <g
           id="g1079"
           transform="translate(102.41105,5.5715859)"
           style="stroke-width:2.85081863">
          <path
             style="fill:#9c7f00;stroke-width:2.85081863"
             inkscape:connector-curvature="0"
             id="path1071"
             d="m 24.460978,3.5420545 a 0.96721,0.96721 0 0 0 -0.75,0.59375 l -5.4062,12.5619995 -13.6249999,1.25 a 0.96721,0.96721 0 0 0 -0.53125,1.6875 l 10.2499999,9.0312 -3,13.344 a 0.96721,0.96721 0 0 0 1.4375,1.0625 l 11.75,-7 11.75,6.9688 a 0.96721,0.96721 0 0 0 1.4375,-1.0625 l -3,-13.312 10.25,-9.0312 a 0.96721,0.96721 0 0 0 -0.53125,-1.6875 l -13.625,-1.25 -5.4062,-12.5619995 a 0.96721,0.96721 0 0 0 -1,-0.59375 z" />
          <path
             style="fill:#edd400;stroke-width:2.85081863"
             inkscape:connector-curvature="0"
             id="path1073"
             d="m 12.345978,42.222554 3.1263,-13.899 -10.7069999,-9.3978 14.1849999,-1.3218 5.6292,-13.0869995 5.6405,13.0819995 14.186,1.3095 -10.699,9.407 3.1383,13.896 -12.253,-7.2683 -12.246,7.2789 z" />
          <path
             inkscape:connector-curvature="0"
             style="fill:none;stroke:url(#linearGradient1101);stroke-width:2.85081863"
             id="path1075"
             d="m 24.585978,5.6357545 -5.2188,12.1559995 a 0.4547,0.4547 0 0 1 -0.375,0.25 l -13.1249999,1.2188 9.9061999,8.7188 a 0.4547,0.4547 0 0 1 0.125,0.4375 l -2.9062,12.875 11.375,-6.75 a 0.4547,0.4547 0 0 1 0.4375,0 l 11.375,6.7188 -2.9062,-12.844 a 0.4547,0.4547 0 0 1 0.125,-0.4375 l 9.9062,-8.7188 -13.125,-1.2188 a 0.4547,0.4547 0 0 1 -0.375,-0.25 l -5.2188,-12.1559995 z" />
          <path
             inkscape:connector-curvature="0"
             style="opacity:0.6;fill:url(#linearGradient1087);stroke-width:2.85081863"
             id="path1077"
             d="m 24.585978,4.5107545 -5.625,13.0939995 -14.1879999,1.3125 9.2811999,8.1562 c 8.444,-3.0385 19.488,-5.427 29.656,-7.5625 l 0.6875,-0.59375 -14.188,-1.3125 -5.625,-13.0939995 z" />
        </g>
      </g>
    </g>
  </g>
</svg>
