<?xml version="1.0" encoding="UTF-8" standalone="no"?>
<!-- Created with Inkscape (http://www.inkscape.org/) -->

<svg
   xmlns:dc="http://purl.org/dc/elements/1.1/"
   xmlns:cc="http://creativecommons.org/ns#"
   xmlns:rdf="http://www.w3.org/1999/02/22-rdf-syntax-ns#"
   xmlns:svg="http://www.w3.org/2000/svg"
   xmlns="http://www.w3.org/2000/svg"
   xmlns:sodipodi="http://sodipodi.sourceforge.net/DTD/sodipodi-0.dtd"
   xmlns:inkscape="http://www.inkscape.org/namespaces/inkscape"
   width="100"
   height="25"
   viewBox="0 0 26.458333 6.6145835"
   version="1.1"
   id="svg1473"
   sodipodi:docname="no-stars.svg"
   inkscape:version="0.92.3 (2405546, 2018-03-11)">
  <defs
     id="defs1467">
    <linearGradient
       id="e"
       x2="0"
       y1="5.7810001"
       y2="42.439999"
       gradientUnits="userSpaceOnUse"
       gradientTransform="translate(0.58597807,-0.64544555)">
      <stop
         stop-color="#eeeeec"
         stop-opacity=".8"
         offset="0"
         id="stop7" />
      <stop
         stop-color="#eeeeec"
         stop-opacity="0"
         offset="1"
         id="stop9" />
    </linearGradient>
    <linearGradient
       id="f"
       x1="14.197"
       x2="33.595001"
       y1="-30.75"
       y2="72.080002"
       gradientUnits="userSpaceOnUse"
       gradientTransform="translate(0.58597807,-0.64544555)">
      <stop
         stop-color="#fff"
         offset="0"
         id="stop12" />
      <stop
         stop-color="#fff"
         stop-opacity="0"
         offset="1"
         id="stop14" />
    </linearGradient>
    <linearGradient
       id="linearGradient2039"
       x2="0"
       y1="5.7810001"
       y2="42.439999"
       gradientUnits="userSpaceOnUse"
       gradientTransform="translate(0.58597807,-0.64544555)">
      <stop
         stop-color="#eeeeec"
         stop-opacity=".8"
         offset="0"
         id="stop2035" />
      <stop
         stop-color="#eeeeec"
         stop-opacity="0"
         offset="1"
         id="stop2037" />
    </linearGradient>
    <linearGradient
       id="linearGradient2053"
       x2="0"
       y1="5.7810001"
       y2="42.439999"
       gradientUnits="userSpaceOnUse"
       gradientTransform="translate(0.58597807,-0.64544555)">
      <stop
         stop-color="#eeeeec"
         stop-opacity=".8"
         offset="0"
         id="stop2049" />
      <stop
         stop-color="#eeeeec"
         stop-opacity="0"
         offset="1"
         id="stop2051" />
    </linearGradient>
    <linearGradient
       id="linearGradient2067"
       x2="0"
       y1="5.7810001"
       y2="42.439999"
       gradientUnits="userSpaceOnUse"
       gradientTransform="translate(0.58597807,-0.64544555)">
      <stop
         stop-color="#eeeeec"
         stop-opacity=".8"
         offset="0"
         id="stop2063" />
      <stop
         stop-color="#eeeeec"
         stop-opacity="0"
         offset="1"
         id="stop2065" />
    </linearGradient>
    <linearGradient
       id="linearGradient2081"
       x2="0"
       y1="5.7810001"
       y2="42.439999"
       gradientUnits="userSpaceOnUse"
       gradientTransform="translate(0.58597807,-0.64544555)">
      <stop
         stop-color="#eeeeec"
         stop-opacity=".8"
         offset="0"
         id="stop2077" />
      <stop
         stop-color="#eeeeec"
         stop-opacity="0"
         offset="1"
         id="stop2079" />
    </linearGradient>
    <linearGradient
       id="e-2"
       x2="0"
       y1="5.7810001"
       y2="42.439999"
       gradientUnits="userSpaceOnUse"
       gradientTransform="translate(0.58597807,-0.64544555)">
      <stop
         stop-color="#eeeeec"
         stop-opacity=".8"
         offset="0"
         id="stop7-7" />
      <stop
         stop-color="#eeeeec"
         stop-opacity="0"
         offset="1"
         id="stop9-0" />
    </linearGradient>
    <linearGradient
       id="linearGradient2299"
       x2="0"
       y1="5.7810001"
       y2="42.439999"
       gradientUnits="userSpaceOnUse"
       gradientTransform="translate(0.58597807,-0.64544555)">
      <stop
         stop-color="#eeeeec"
         stop-opacity=".8"
         offset="0"
         id="stop2295" />
      <stop
         stop-color="#eeeeec"
         stop-opacity="0"
         offset="1"
         id="stop2297" />
    </linearGradient>
    <linearGradient
       id="linearGradient2313"
       x2="0"
       y1="5.7810001"
       y2="42.439999"
       gradientUnits="userSpaceOnUse"
       gradientTransform="translate(0.58597807,-0.64544555)">
      <stop
         stop-color="#eeeeec"
         stop-opacity=".8"
         offset="0"
         id="stop2309" />
      <stop
         stop-color="#eeeeec"
         stop-opacity="0"
         offset="1"
         id="stop2311" />
    </linearGradient>
    <linearGradient
       id="linearGradient2327"
       x2="0"
       y1="5.7810001"
       y2="42.439999"
       gradientUnits="userSpaceOnUse"
       gradientTransform="translate(0.58597807,-0.64544555)">
      <stop
         stop-color="#eeeeec"
         stop-opacity=".8"
         offset="0"
         id="stop2323" />
      <stop
         stop-color="#eeeeec"
         stop-opacity="0"
         offset="1"
         id="stop2325" />
    </linearGradient>
    <linearGradient
       id="e-6"
       x2="0"
       y1="5.7810001"
       y2="42.439999"
       gradientUnits="userSpaceOnUse"
       gradientTransform="translate(0.58597807,-0.64544555)">
      <stop
         stop-color="#eeeeec"
         stop-opacity=".8"
         offset="0"
         id="stop7-0" />
      <stop
         stop-color="#eeeeec"
         stop-opacity="0"
         offset="1"
         id="stop9-6" />
    </linearGradient>
    <linearGradient
       id="linearGradient2513"
       x2="0"
       y1="5.7810001"
       y2="42.439999"
       gradientUnits="userSpaceOnUse"
       gradientTransform="translate(0.58597807,-0.64544555)">
      <stop
         stop-color="#eeeeec"
         stop-opacity=".8"
         offset="0"
         id="stop2509" />
      <stop
         stop-color="#eeeeec"
         stop-opacity="0"
         offset="1"
         id="stop2511" />
    </linearGradient>
    <linearGradient
       id="linearGradient2527"
       x2="0"
       y1="5.7810001"
       y2="42.439999"
       gradientUnits="userSpaceOnUse"
       gradientTransform="translate(0.58597807,-0.64544555)">
      <stop
         stop-color="#eeeeec"
         stop-opacity=".8"
         offset="0"
         id="stop2523" />
      <stop
         stop-color="#eeeeec"
         stop-opacity="0"
         offset="1"
         id="stop2525" />
    </linearGradient>
    <linearGradient
       id="e-1"
       x2="0"
       y1="5.7810001"
       y2="42.439999"
       gradientUnits="userSpaceOnUse"
       gradientTransform="translate(0.58597807,-0.64544555)">
      <stop
         stop-color="#eeeeec"
         stop-opacity=".8"
         offset="0"
         id="stop7-8" />
      <stop
         stop-color="#eeeeec"
         stop-opacity="0"
         offset="1"
         id="stop9-7" />
    </linearGradient>
    <linearGradient
       id="linearGradient2684"
       x2="0"
       y1="5.7810001"
       y2="42.439999"
       gradientUnits="userSpaceOnUse"
       gradientTransform="translate(0.58597807,-0.64544555)">
      <stop
         stop-color="#eeeeec"
         stop-opacity=".8"
         offset="0"
         id="stop2680" />
      <stop
         stop-color="#eeeeec"
         stop-opacity="0"
         offset="1"
         id="stop2682" />
    </linearGradient>
    <linearGradient
       id="e-0"
       x2="0"
       y1="5.7810001"
       y2="42.439999"
       gradientUnits="userSpaceOnUse"
       gradientTransform="translate(0.58597807,-0.64544555)">
      <stop
         stop-color="#eeeeec"
         stop-opacity=".8"
         offset="0"
         id="stop7-2" />
      <stop
         stop-color="#eeeeec"
         stop-opacity="0"
         offset="1"
         id="stop9-3" />
    </linearGradient>
  </defs>
  <sodipodi:namedview
     id="base"
     pagecolor="#ffffff"
     bordercolor="#666666"
     borderopacity="1.0"
     inkscape:pageopacity="0.0"
     inkscape:pageshadow="2"
     inkscape:zoom="3.2909965"
     inkscape:cx="12.958232"
     inkscape:cy="14.446856"
     inkscape:document-units="mm"
     inkscape:current-layer="layer1"
     showgrid="false"
     units="px"
     inkscape:window-width="1920"
     inkscape:window-height="960"
     inkscape:window-x="0"
     inkscape:window-y="27"
     inkscape:window-maximized="1" />
  <metadata
     id="metadata1470">
    <rdf:RDF>
      <cc:Work
         rdf:about="">
        <dc:format>image/svg+xml</dc:format>
        <dc:type
           rdf:resource="http://purl.org/dc/dcmitype/StillImage" />
        <dc:title></dc:title>
      </cc:Work>
    </rdf:RDF>
  </metadata>
  <g
     inkscape:label="Layer 1"
     inkscape:groupmode="layer"
     id="layer1"
     transform="translate(0,-290.38538)">
    <g
       id="g2893"
       transform="translate(0,1.3694527)">
      <path
         inkscape:connector-curvature="0"
         style="fill:none;stroke:#191107;stroke-width:0.26458332;stroke-opacity:0.8"
         id="path2886"
         d="m 2.0999585,291.91061 -0.5087379,1.17631 a 0.04432498,0.04400032 0 0 1 -0.036556,0.0242 l -1.27944911,0.11794 0.96567441,0.8437 a 0.04432498,0.04400032 0 0 1 0.012187,0.0423 l -0.28330181,1.24589 1.10885551,-0.65318 a 0.04432498,0.04400032 0 0 1 0.042648,0 l 1.1088558,0.65016 -0.2833016,-1.24289 a 0.04432498,0.04400032 0 0 1 0.012184,-0.0423 l 0.9656752,-0.8437 -1.2794491,-0.11794 a 0.04432498,0.04400032 0 0 1 -0.036556,-0.0242 l -0.5087371,-1.17631 z" />
      <path
         d="m 7.7570984,291.89442 -0.5087379,1.17631 a 0.04432498,0.04400032 0 0 1 -0.036556,0.0242 l -1.2794491,0.11794 0.9656744,0.8437 a 0.04432498,0.04400032 0 0 1 0.012187,0.0423 l -0.2833018,1.24589 1.1088555,-0.65318 a 0.04432498,0.04400032 0 0 1 0.042648,0 l 1.1088558,0.65016 -0.2833016,-1.24289 a 0.04432498,0.04400032 0 0 1 0.012184,-0.0423 l 0.9656752,-0.8437 -1.2794491,-0.11794 a 0.04432498,0.04400032 0 0 1 -0.036556,-0.0242 L 7.7570897,291.8944 Z"
         id="path1441"
         style="fill:none;stroke:#191107;stroke-width:0.26458332;stroke-opacity:0.8"
         inkscape:connector-curvature="0" />
      <path
         inkscape:connector-curvature="0"
         style="fill:none;stroke:#191107;stroke-width:0.26458332;stroke-opacity:0.8"
         id="path1443"
         d="m 13.16342,291.88066 -0.508738,1.17631 a 0.04432498,0.04400032 0 0 1 -0.03656,0.0242 l -1.279449,0.11794 0.965674,0.8437 a 0.04432498,0.04400032 0 0 1 0.01219,0.0423 l -0.283302,1.24589 1.108856,-0.65318 a 0.04432498,0.04400032 0 0 1 0.04265,0 l 1.108856,0.65016 -0.283302,-1.24289 a 0.04432498,0.04400032 0 0 1 0.01219,-0.0423 l 0.965675,-0.8437 -1.279449,-0.11794 a 0.04432498,0.04400032 0 0 1 -0.03656,-0.0242 l -0.508738,-1.17631 z" />
      <path
         d="m 18.567522,291.89442 -0.508737,1.17631 a 0.04432498,0.04400032 0 0 1 -0.03656,0.0242 l -1.279449,0.11794 0.965674,0.8437 a 0.04432498,0.04400032 0 0 1 0.01219,0.0423 l -0.283302,1.24589 1.108856,-0.65318 a 0.04432498,0.04400032 0 0 1 0.04265,0 l 1.108856,0.65016 -0.283302,-1.24289 a 0.04432498,0.04400032 0 0 1 0.01218,-0.0423 l 0.965676,-0.8437 -1.279449,-0.11794 a 0.04432498,0.04400032 0 0 1 -0.03656,-0.0242 l -0.508738,-1.17631 z"
         id="path1445"
         style="fill:none;stroke:#191107;stroke-width:0.26458332;stroke-opacity:0.8"
         inkscape:connector-curvature="0" />
      <path
         inkscape:connector-curvature="0"
         style="fill:none;stroke:#191107;stroke-width:0.26458332;stroke-opacity:0.8"
         id="path1447"
         d="m 24.263501,291.82526 -0.508737,1.17631 a 0.04432498,0.04400032 0 0 1 -0.03656,0.0242 l -1.279449,0.11794 0.965674,0.8437 a 0.04432498,0.04400032 0 0 1 0.01219,0.0423 l -0.283302,1.24588 1.108856,-0.65318 a 0.04432498,0.04400032 0 0 1 0.04265,0 l 1.108856,0.65017 -0.283302,-1.24289 a 0.04432498,0.04400032 0 0 1 0.01218,-0.0423 l 0.965676,-0.8437 -1.279449,-0.11794 a 0.04432498,0.04400032 0 0 1 -0.03656,-0.0242 l -0.508738,-1.17631 z" />
    </g>
  </g>
</svg>
