<?xml version="1.0" encoding="UTF-8" standalone="no"?>
<svg
   xmlns:dc="http://purl.org/dc/elements/1.1/"
   xmlns:cc="http://creativecommons.org/ns#"
   xmlns:rdf="http://www.w3.org/1999/02/22-rdf-syntax-ns#"
   xmlns:svg="http://www.w3.org/2000/svg"
   xmlns="http://www.w3.org/2000/svg"
   xmlns:sodipodi="http://sodipodi.sourceforge.net/DTD/sodipodi-0.dtd"
   xmlns:inkscape="http://www.inkscape.org/namespaces/inkscape"
   width="500"
   height="500"
   version="1.1"
   viewBox="0 0 8766.1736 8766.0301"
   xml:space="preserve"
   id="svg40"
   sodipodi:docname="box.svg"
   inkscape:version="0.92.3 (2405546, 2018-03-11)"
   style="clip-rule:evenodd;fill-rule:evenodd;image-rendering:optimizeQuality;shape-rendering:geometricPrecision;text-rendering:geometricPrecision"><metadata
     id="metadata44"><rdf:RDF><cc:Work
         rdf:about=""><dc:format>image/svg+xml</dc:format><dc:type
           rdf:resource="http://purl.org/dc/dcmitype/StillImage" /><dc:title></dc:title></cc:Work></rdf:RDF></metadata><sodipodi:namedview
     pagecolor="#ffffff"
     bordercolor="#666666"
     borderopacity="1"
     objecttolerance="10"
     gridtolerance="10"
     guidetolerance="10"
     inkscape:pageopacity="0"
     inkscape:pageshadow="2"
     inkscape:window-width="1920"
     inkscape:window-height="960"
     id="namedview42"
     showgrid="false"
     inkscape:zoom="0.91931624"
     inkscape:cx="221.95181"
     inkscape:cy="181.00063"
     inkscape:window-x="0"
     inkscape:window-y="27"
     inkscape:window-maximized="1"
     inkscape:current-layer="svg40"
     units="px" /><defs
     id="defs4"><style
       type="text/css"
       id="style2"><![CDATA[
    .fil3 {fill:none}
    .fil8 {fill:#714B3C}
    .fil2 {fill:#947451}
    .fil9 {fill:#A58869}
    .fil11 {fill:#A98966}
    .fil4 {fill:#A98C6D}
    .fil0 {fill:#B3926F}
    .fil5 {fill:#C09F7D}
    .fil1 {fill:#D0B08E}
    .fil6 {fill:#DDC5AC}
    .fil7 {fill:white}
    .fil12 {fill:#675341;fill-rule:nonzero}
    .fil10 {fill:#9B7B58;fill-rule:nonzero}
   ]]></style></defs><g
     transform="matrix(2.1889634,0,0,2.1889634,1099.7934,764.80212)"
     id="g38"
     style="stroke-width:4.04346609"><polygon
       class="fil0"
       points="1537,3378 1537,1691 0,803 18,2398 "
       id="polygon6"
       style="fill:#b3926f;stroke-width:4.65178347" /><polygon
       class="fil1"
       points="638,1172 0,803 1537,3 2998,847 1537,1691 "
       id="polygon8"
       style="fill:#d0b08e;stroke-width:4.65178347" /><path
       class="fil2"
       d="m 2995,2529 -1134,655 z m 0,0 -3,-1686 -1458,842 v 1687 l 9,2 z"
       id="path10"
       inkscape:connector-curvature="0"
       style="fill:#947451;stroke-width:4.65178347" /><line
       class="fil3"
       x1="2267"
       x2="939"
       y1="1269"
       y2="502"
       id="line12"
       style="fill:none;stroke-width:4.65178347" /><line
       class="fil3"
       x1="2267"
       x2="2271"
       y1="1269"
       y2="1307"
       id="line14"
       style="fill:none;stroke-width:4.65178347" /><polygon
       class="fil4"
       points="2983,839 1537,1674 1537,1716 2998,879 2998,847 "
       id="polygon16"
       style="fill:#a98c6d;stroke-width:4.65178347" /><polygon
       class="fil5"
       points="0,833 17,794 1537,1674 1537,1716 "
       id="polygon18"
       style="fill:#c09f7d;stroke-width:4.65178347" /><polygon
       class="fil6"
       points="2113,1358 628,476 942,310 2426,1177 "
       id="polygon20"
       style="fill:#ddc5ac;stroke-width:4.65178347" /><path
       class="fil7"
       d="m 2259,1239 28,-22 c 27,-21 36,-23 68,-30 -30,24 -64,41 -91,62 -7,-4 -9,-8 -6,-10 z"
       id="path22"
       inkscape:connector-curvature="0"
       style="fill:#ffffff;stroke-width:4.65178347" /><path
       class="fil7"
       d="m 2121,1321 28,-22 c 27,-21 36,-23 68,-30 -30,24 -64,41 -91,62 -7,-4 -9,-8 -6,-10 z"
       id="path24"
       inkscape:connector-curvature="0"
       style="fill:#ffffff;stroke-width:4.65178347" /><polygon
       class="fil8"
       points="2995,858 1540,1698 1548,1710 2998,879 2998,875 "
       id="polygon26"
       style="fill:#714b3c;stroke-width:4.65178347" /><polygon
       class="fil9"
       points="2349,1656 2300,1624 2271,1684 2228,1660 2195,1734 2159,1699 2123,1772 2113,1358 2426,1177 2426,1597 2382,1583 "
       id="polygon28"
       style="fill:#a58869;stroke-width:4.65178347" /><polygon
       class="fil10"
       points="772,409 781,402 2275,1264 2263,1271 "
       id="polygon30"
       style="fill:#9b7b58;fill-rule:nonzero;stroke-width:4.65178347" /><polygon
       class="fil11"
       points="1564,1700 1564,3358 1527,3372 1522,1707 1537,1683 "
       id="polygon32"
       style="fill:#a98966;stroke-width:4.65178347" /><path
       class="fil12"
       d="m 3001,849 v 1677 c 0,4 -1,7 -6,10 L 1532,3381 17,2399 1532,3368 2989,2527 V 843 l 12,7 z"
       id="path34"
       inkscape:connector-curvature="0"
       style="fill:#675341;fill-rule:nonzero;stroke-width:4.65178347" /><polygon
       class="fil12"
       points="1894,216 1537,10 11,810 0,803 1531,0 1543,0 1899,206 1900,213 "
       id="polygon36"
       style="fill:#675341;fill-rule:nonzero;stroke-width:4.65178347" /></g></svg>