<?xml version="1.0" encoding="UTF-8" standalone="no"?>
<svg
   xmlns:dc="http://purl.org/dc/elements/1.1/"
   xmlns:cc="http://creativecommons.org/ns#"
   xmlns:rdf="http://www.w3.org/1999/02/22-rdf-syntax-ns#"
   xmlns:svg="http://www.w3.org/2000/svg"
   xmlns="http://www.w3.org/2000/svg"
   xmlns:sodipodi="http://sodipodi.sourceforge.net/DTD/sodipodi-0.dtd"
   xmlns:inkscape="http://www.inkscape.org/namespaces/inkscape"
   viewBox="0 0 499.99999 500"
   version="1.1"
   id="svg8"
   sodipodi:docname="lock.svg"
   width="500"
   height="500"
   inkscape:version="0.92.3 (2405546, 2018-03-11)">
  <metadata
     id="metadata14">
    <rdf:RDF>
      <cc:Work
         rdf:about="">
        <dc:format>image/svg+xml</dc:format>
        <dc:type
           rdf:resource="http://purl.org/dc/dcmitype/StillImage" />
        <dc:title></dc:title>
      </cc:Work>
    </rdf:RDF>
  </metadata>
  <defs
     id="defs12" />
  <sodipodi:namedview
     pagecolor="#ffffff"
     bordercolor="#666666"
     borderopacity="1"
     objecttolerance="10"
     gridtolerance="10"
     guidetolerance="10"
     inkscape:pageopacity="0"
     inkscape:pageshadow="2"
     inkscape:window-width="1920"
     inkscape:window-height="960"
     id="namedview10"
     showgrid="false"
     inkscape:zoom="0.63191568"
     inkscape:cx="201.06671"
     inkscape:cy="61.842553"
     inkscape:window-x="0"
     inkscape:window-y="27"
     inkscape:window-maximized="1"
     inkscape:current-layer="svg8" />
  <path
     style="opacity:0.98000004;fill:#808080;stroke-width:1"
     inkscape:connector-curvature="0"
     id="path4"
     d="M 251.23701,35.924762 C 189.02575,37.49069 139.42874,88.12835 139.42874,150.73007 v 48.81182 h -30.08919 v 165.99533 h 0.0437 c -0.0437,1.19895 -0.0437,2.40118 -0.0437,3.6124 0,48.20844 35.31507,87.00695 79.20828,87.00695 h 131.23714 c 43.89325,0 79.25339,-38.79851 79.25339,-87.00695 0,-1.21095 -0.045,-2.41386 -0.0887,-3.6124 h 0.0887 V 199.54189 h -30.04549 v -48.81182 c 0,-63.594165 -51.16603,-114.805308 -114.76022,-114.805308 -0.9937,0 -2.00814,-0.02456 -2.99564,0 z m -0.52868,33.481015 c 0.75491,-0.01909 1.53168,0 2.29082,0 36.35686,-0.849362 72.09201,26.04752 79.51703,61.762963 1.26412,22.7896 1.97603,45.56093 2.37908,68.37173 H 173.74939 c -0.0379,-10.90734 -0.0887,-21.78874 -0.30829,-32.68875 -9.20257,-46.64077 29.70997,-96.329435 77.26994,-97.447363 z m 3.34811,190.848813 c 1.71537,0 3.4499,0.134 5.19837,0.3964 18.65069,2.7979 31.5215,20.16051 28.72319,38.81119 -1.28822,8.58807 -5.71854,15.97783 -11.89457,21.14591 l 11.9387,74.84803 h -67.6669 l 11.89442,-74.84803 c -8.79866,-7.38938 -13.67969,-19.08207 -11.85042,-31.27902 2.53554,-16.90263 17.07461,-29.03052 33.65721,-29.07563 z" />
</svg>
